# xmcd
#
# Track frame offsets:
#	150
#	17031
#	30556
#	55537
#	67108
#	87196
#	97548
#	116630
#	126665
#	149475
#
# Disc length: 2334 seconds
#
# Revision: 1
# Processed by: cddbd v1.5.2PL0 Copyright (c) Steve Scherf et al.
# Submitted via: audiograbber 1.83.01
#
DISCID=83091c0a
DTITLE=Fidel Lachance - Fidélité
DYEAR=1995
DGENRE=Country
TTITLE0=Fidélité
TTITLE1=Je parcours les routes du village
TTITLE2=Moi je vis seul
TTITLE3=À chaque matin
TTITLE4=Il est parti pour l'autre monde
TTITLE5=Le signaleur routier
TTITLE6=Quand tu es partie
TTITLE7=Tu m'as donné le goût de vivre
TTITLE8=Espoir reviens-moi
TTITLE9=Je pense à ma vie
EXTD=
EXTT0=
EXTT1=
EXTT2=
EXTT3=
EXTT4=
EXTT5=
EXTT6=
EXTT7=
EXTT8=
EXTT9=
PLAYORDER=
